<svg width="247" height="34" viewBox="0 0 247 34" fill="none" xmlns="http://www.w3.org/2000/svg">
<path d="M16.5 33H33V30.3332H25.4956C22.8202 32.078 19.6941 33.0048 16.5 33ZM16.5 27.0002C15.6164 26.9991 14.7692 26.6476 14.1444 26.0228C13.5196 25.3979 13.1681 24.5508 13.167 23.6672C13.1675 22.7832 13.5188 21.9355 14.1437 21.3103C14.7686 20.685 15.616 20.3332 16.5 20.3321V12.6658C15.6164 12.6647 14.7692 12.3132 14.1444 11.6884C13.5196 11.0636 13.1681 10.2164 13.167 9.33281C13.1678 8.449 13.5192 7.60161 14.1441 6.97656C14.7689 6.35152 15.6162 5.99987 16.5 5.99878V0C7.38684 0 0 7.38684 0 16.5C0 25.6131 7.38684 33 16.5 33V27.0002ZM9.33281 19.833C8.44918 19.8319 7.60205 19.4804 6.97723 18.8556C6.35241 18.2307 6.0009 17.3836 5.99981 16.5C6.0009 15.6164 6.35241 14.7692 6.97723 14.1444C7.60205 13.5196 8.44918 13.1681 9.33281 13.167C10.2168 13.1675 11.0645 13.5188 11.6897 14.1437C12.315 14.7686 12.6668 15.616 12.6679 16.5C12.6668 17.3836 12.3153 18.2307 11.6905 18.8556C11.0656 19.4804 10.2185 19.8319 9.33488 19.833H9.33281Z" fill="#E30B13"/>
<path d="M33 16.5C33 7.38684 25.3893 0 16 0V5.99981C16.9104 6.0009 17.7832 6.35241 18.427 6.97723C19.0707 7.60205 19.4329 8.44918 19.434 9.33281C19.4334 10.2168 19.0715 11.0645 18.4277 11.6897C17.7839 12.315 16.9108 12.6668 16 12.6679V20.3342C16.9106 20.3353 17.7836 20.6869 18.4273 21.312C19.0711 21.937 19.4332 22.7844 19.434 23.6682C19.4323 24.5515 19.0699 25.3981 18.4262 26.0225C17.7825 26.6468 16.91 26.9981 16 26.9992V33C19.4191 33 22.6024 32.0203 25.2682 30.3332C29.9219 27.39 33 22.2936 33 16.5ZM23.3844 13.167C24.2946 13.1684 25.1671 13.52 25.8107 14.1448C26.4542 14.7696 26.8162 15.6165 26.8173 16.5C26.8162 17.3836 26.454 18.2308 25.8103 18.8556C25.1665 19.4804 24.2937 19.8319 23.3833 19.833C22.4727 19.8322 21.5996 19.4808 20.9557 18.8559C20.3117 18.2311 19.9494 17.3838 19.9482 16.5C19.9494 15.6162 20.3117 14.7689 20.9557 14.1441C21.5996 13.5192 22.4727 13.1678 23.3833 13.167H23.3844Z" fill="#CE080F"/>
<path d="M47.576 25.24C46.392 25.24 45.288 25.024 44.264 24.592C43.24 24.144 42.344 23.528 41.576 22.744C40.808 21.944 40.208 21.024 39.776 19.984C39.344 18.944 39.128 17.832 39.128 16.648C39.128 15.448 39.344 14.336 39.776 13.312C40.208 12.272 40.8 11.36 41.552 10.576C42.32 9.792 43.208 9.184 44.216 8.752C45.24 8.32 46.344 8.104 47.528 8.104C48.712 8.104 49.808 8.32 50.816 8.752C51.84 9.184 52.736 9.792 53.504 10.576C54.272 11.36 54.864 12.272 55.28 13.312C55.712 14.352 55.928 15.472 55.928 16.672C55.928 17.856 55.712 18.968 55.28 20.008C54.864 21.048 54.272 21.96 53.504 22.744C52.752 23.528 51.864 24.144 50.84 24.592C49.832 25.024 48.744 25.24 47.576 25.24ZM55.544 26.176L47.744 18.376L49.208 16.912L56.984 24.712L55.544 26.176ZM47.528 23.08C48.712 23.08 49.76 22.808 50.672 22.264C51.584 21.704 52.296 20.944 52.808 19.984C53.336 19.008 53.6 17.896 53.6 16.648C53.6 15.72 53.448 14.872 53.144 14.104C52.856 13.32 52.44 12.64 51.896 12.064C51.352 11.488 50.712 11.048 49.976 10.744C49.24 10.424 48.424 10.264 47.528 10.264C46.344 10.264 45.296 10.536 44.384 11.08C43.472 11.624 42.752 12.376 42.224 13.336C41.712 14.296 41.456 15.4 41.456 16.648C41.456 17.576 41.608 18.44 41.912 19.24C42.216 20.024 42.632 20.704 43.16 21.28C43.704 21.84 44.344 22.28 45.08 22.6C45.832 22.92 46.648 23.08 47.528 23.08ZM62.4652 25L57.9532 13.6H60.2092L63.4732 22.48H62.7532L65.9932 13.6H67.2412L70.4812 22.48H69.7612L73.0252 13.6H75.2812L70.7932 25H69.5212L66.2332 16.384H67.0252L63.7132 25H62.4652ZM81.5452 25.24C80.4572 25.24 79.4652 25.04 78.5692 24.64C77.6892 24.224 76.9452 23.624 76.3372 22.84L77.8732 21.304C78.2412 21.864 78.7452 22.312 79.3852 22.648C80.0252 22.968 80.7372 23.128 81.5212 23.128C82.2572 23.128 82.8892 22.992 83.4172 22.72C83.9612 22.432 84.3852 22.032 84.6892 21.52C85.0092 21.008 85.1692 20.416 85.1692 19.744C85.1692 19.056 85.0092 18.464 84.6892 17.968C84.3852 17.456 83.9532 17.064 83.3932 16.792C82.8332 16.52 82.1692 16.384 81.4012 16.384C81.1132 16.384 80.8252 16.408 80.5372 16.456C80.2492 16.488 79.9692 16.544 79.6972 16.624L80.6572 15.328C80.9612 15.184 81.2892 15.072 81.6412 14.992C81.9932 14.912 82.3452 14.872 82.6972 14.872C83.5932 14.872 84.3932 15.08 85.0972 15.496C85.8172 15.912 86.3852 16.496 86.8012 17.248C87.2332 18 87.4492 18.872 87.4492 19.864C87.4492 20.92 87.1932 21.856 86.6812 22.672C86.1852 23.472 85.4972 24.104 84.6172 24.568C83.7372 25.016 82.7132 25.24 81.5452 25.24ZM79.6972 16.624V15.256L84.5692 9.712L87.2572 9.688L82.2412 15.376L79.6972 16.624ZM77.1292 10.36V8.344H87.2572V9.688L85.2892 10.36H77.1292ZM97.4113 25L92.0833 19.168L97.3633 13.6H99.9793L94.0993 19.744L94.1953 18.496L100.195 25H97.4113ZM90.1152 25V7.864H92.2753V25H90.1152ZM106.62 25.24C105.5 25.24 104.492 24.976 103.596 24.448C102.7 23.92 101.988 23.208 101.46 22.312C100.932 21.4 100.668 20.384 100.668 19.264C100.668 18.16 100.932 17.168 101.46 16.288C101.988 15.392 102.7 14.68 103.596 14.152C104.492 13.624 105.5 13.36 106.62 13.36C107.724 13.36 108.724 13.624 109.62 14.152C110.532 14.664 111.252 15.368 111.78 16.264C112.308 17.16 112.572 18.16 112.572 19.264C112.572 20.384 112.308 21.4 111.78 22.312C111.252 23.208 110.532 23.92 109.62 24.448C108.724 24.976 107.724 25.24 106.62 25.24ZM106.62 23.152C107.34 23.152 107.98 22.984 108.54 22.648C109.1 22.312 109.54 21.856 109.86 21.28C110.18 20.688 110.34 20.016 110.34 19.264C110.34 18.528 110.172 17.872 109.836 17.296C109.516 16.72 109.076 16.272 108.516 15.952C107.972 15.616 107.34 15.448 106.62 15.448C105.9 15.448 105.26 15.616 104.7 15.952C104.14 16.272 103.7 16.72 103.38 17.296C103.06 17.872 102.9 18.528 102.9 19.264C102.9 20.016 103.06 20.688 103.38 21.28C103.7 21.856 104.14 22.312 104.7 22.648C105.26 22.984 105.9 23.152 106.62 23.152ZM130.366 25V8.344H132.622V25H130.366ZM131.902 17.68V15.616H140.59V17.68H131.902ZM131.902 10.408V8.344H140.998V10.408H131.902ZM143.6 25V13.6H145.76V25H143.6ZM144.68 11.32C144.28 11.32 143.952 11.192 143.696 10.936C143.44 10.664 143.312 10.328 143.312 9.928C143.312 9.544 143.44 9.224 143.696 8.968C143.952 8.696 144.28 8.56 144.68 8.56C145.08 8.56 145.408 8.696 145.664 8.968C145.92 9.224 146.048 9.544 146.048 9.928C146.048 10.328 145.92 10.664 145.664 10.936C145.408 11.192 145.08 11.32 144.68 11.32ZM148.943 25V7.864H151.103V25H148.943ZM154.264 25V13.6H156.424V25H154.264ZM161.968 25V18.112C161.968 17.264 161.704 16.6 161.176 16.12C160.664 15.624 160.016 15.376 159.232 15.376C158.704 15.376 158.232 15.488 157.816 15.712C157.4 15.936 157.064 16.248 156.808 16.648C156.552 17.048 156.424 17.528 156.424 18.088L155.536 17.656C155.536 16.792 155.72 16.04 156.088 15.4C156.472 14.76 156.992 14.264 157.648 13.912C158.304 13.544 159.04 13.36 159.856 13.36C160.656 13.36 161.376 13.536 162.016 13.888C162.672 14.24 163.184 14.736 163.552 15.376C163.936 16.016 164.128 16.776 164.128 17.656V25H161.968ZM169.672 25V18.112C169.672 17.264 169.408 16.6 168.88 16.12C168.368 15.624 167.728 15.376 166.96 15.376C166.432 15.376 165.952 15.488 165.52 15.712C165.104 15.936 164.768 16.248 164.512 16.648C164.256 17.048 164.128 17.528 164.128 18.088L162.904 17.656C162.952 16.776 163.184 16.024 163.6 15.4C164.032 14.76 164.584 14.264 165.256 13.912C165.928 13.544 166.664 13.36 167.464 13.36C168.296 13.36 169.04 13.536 169.696 13.888C170.352 14.24 170.872 14.736 171.256 15.376C171.656 16.016 171.856 16.784 171.856 17.68V25H169.672ZM178.419 25.24C177.779 25.24 177.171 25.16 176.595 25C176.035 24.824 175.515 24.584 175.035 24.28C174.555 23.96 174.139 23.584 173.787 23.152L175.179 21.76C175.595 22.272 176.075 22.656 176.619 22.912C177.163 23.152 177.771 23.272 178.443 23.272C179.115 23.272 179.635 23.16 180.003 22.936C180.371 22.696 180.555 22.368 180.555 21.952C180.555 21.536 180.403 21.216 180.099 20.992C179.811 20.752 179.435 20.56 178.971 20.416C178.507 20.256 178.011 20.104 177.483 19.96C176.971 19.8 176.483 19.6 176.019 19.36C175.555 19.12 175.171 18.792 174.867 18.376C174.579 17.96 174.435 17.408 174.435 16.72C174.435 16.032 174.603 15.44 174.939 14.944C175.275 14.432 175.739 14.04 176.331 13.768C176.939 13.496 177.667 13.36 178.515 13.36C179.411 13.36 180.203 13.52 180.891 13.84C181.595 14.144 182.171 14.608 182.619 15.232L181.227 16.624C180.907 16.208 180.507 15.888 180.027 15.664C179.563 15.44 179.035 15.328 178.443 15.328C177.819 15.328 177.339 15.44 177.003 15.664C176.683 15.872 176.523 16.168 176.523 16.552C176.523 16.936 176.667 17.232 176.955 17.44C177.243 17.648 177.619 17.824 178.083 17.968C178.563 18.112 179.059 18.264 179.571 18.424C180.083 18.568 180.571 18.768 181.035 19.024C181.499 19.28 181.875 19.624 182.163 20.056C182.467 20.488 182.619 21.056 182.619 21.76C182.619 22.832 182.235 23.68 181.467 24.304C180.715 24.928 179.699 25.24 178.419 25.24Z" fill="white"/>
<path d="M121.535 25C123.444 25 125 23.6304 125 21.538C125 19.4076 123.444 18 121.535 18C119.556 18 118 19.4076 118 21.538C118 23.6304 119.556 25 121.535 25Z" fill="#E30B13"/>
</svg>
